<mxfile host="app.diagrams.net" modified="2020-05-30T14:09:10.704Z" agent="5.0 (Windows NT 10.0; WOW64) AppleWebKit/537.36 (KHTML, like Gecko) Chrome/71.0.3578.98 Safari/537.36" etag="t6Es5tISBoTwBMVxlq9_" version="13.1.9" type="github">
  <diagram id="niuSdxWg7Q3MIj1Ce5Hb" name="第 1 页">
    <mxGraphModel dx="1422" dy="714" grid="1" gridSize="10" guides="1" tooltips="1" connect="1" arrows="1" fold="1" page="1" pageScale="1" pageWidth="827" pageHeight="1169" math="0" shadow="0">
      <root>
        <mxCell id="0" />
        <mxCell id="1" parent="0" />
        <mxCell id="Ar7OocXq3OKdbZVe2O1A-1" value="" style="rounded=1;whiteSpace=wrap;html=1;align=center;fillColor=#d5e8d4;strokeColor=#82b366;" parent="1" vertex="1">
          <mxGeometry x="139" y="250" width="550" height="260" as="geometry" />
        </mxCell>
        <mxCell id="76YXicsh3bZMQd-fV7F4-1" value="方法区&lt;br&gt;Method Area" style="rounded=0;whiteSpace=wrap;html=1;fillColor=#0050ef;strokeColor=#001DBC;fontColor=#ffffff;" parent="1" vertex="1">
          <mxGeometry x="169" y="320" width="120" height="60" as="geometry" />
        </mxCell>
        <mxCell id="76YXicsh3bZMQd-fV7F4-2" value="程序计数器&lt;br&gt;Program Counter Register" style="rounded=0;whiteSpace=wrap;html=1;fillColor=#d80073;strokeColor=#A50040;fontColor=#ffffff;" parent="1" vertex="1">
          <mxGeometry x="339" y="320" width="160" height="60" as="geometry" />
        </mxCell>
        <mxCell id="76YXicsh3bZMQd-fV7F4-3" value="堆&lt;br&gt;Heap" style="rounded=0;whiteSpace=wrap;html=1;fillColor=#0050ef;strokeColor=#001DBC;fontColor=#ffffff;" parent="1" vertex="1">
          <mxGeometry x="169" y="420" width="120" height="60" as="geometry" />
        </mxCell>
        <mxCell id="76YXicsh3bZMQd-fV7F4-4" value="本地方法栈&lt;br&gt;Native Method Stack" style="rounded=0;whiteSpace=wrap;html=1;fillColor=#d80073;strokeColor=#A50040;fontColor=#ffffff;" parent="1" vertex="1">
          <mxGeometry x="539" y="320" width="130" height="60" as="geometry" />
        </mxCell>
        <mxCell id="76YXicsh3bZMQd-fV7F4-5" value="虚拟机栈&lt;br&gt;Java Virtual Machine Stack" style="rounded=0;whiteSpace=wrap;html=1;fillColor=#d80073;strokeColor=#A50040;fontColor=#ffffff;" parent="1" vertex="1">
          <mxGeometry x="339" y="420" width="330" height="60" as="geometry" />
        </mxCell>
        <mxCell id="76YXicsh3bZMQd-fV7F4-6" value="运行时数据区（Runtime Data Area）" style="text;html=1;strokeColor=none;fillColor=none;align=center;verticalAlign=middle;whiteSpace=wrap;rounded=0;" parent="1" vertex="1">
          <mxGeometry x="299" y="280" width="240" height="20" as="geometry" />
        </mxCell>
        <mxCell id="1OoYCIVmeioUj_cGby9e-1" value="" style="shape=flexArrow;endArrow=classic;html=1;fontColor=#FFFFFF;" edge="1" parent="1">
          <mxGeometry width="50" height="50" relative="1" as="geometry">
            <mxPoint x="460" y="250" as="sourcePoint" />
            <mxPoint x="460" y="190" as="targetPoint" />
          </mxGeometry>
        </mxCell>
        <mxCell id="1OoYCIVmeioUj_cGby9e-2" value="" style="shape=flexArrow;endArrow=classic;html=1;fontColor=#FFFFFF;" edge="1" parent="1">
          <mxGeometry width="50" height="50" relative="1" as="geometry">
            <mxPoint x="230" y="570" as="sourcePoint" />
            <mxPoint x="230" y="510" as="targetPoint" />
          </mxGeometry>
        </mxCell>
        <mxCell id="1OoYCIVmeioUj_cGby9e-3" value="" style="shape=flexArrow;endArrow=classic;html=1;fontColor=#FFFFFF;" edge="1" parent="1">
          <mxGeometry width="50" height="50" relative="1" as="geometry">
            <mxPoint x="520" y="570" as="sourcePoint" />
            <mxPoint x="520" y="510" as="targetPoint" />
          </mxGeometry>
        </mxCell>
        <mxCell id="1OoYCIVmeioUj_cGby9e-4" value="" style="shape=flexArrow;endArrow=classic;html=1;fontColor=#FFFFFF;exitX=0.107;exitY=1.008;exitDx=0;exitDy=0;exitPerimeter=0;" edge="1" parent="1" source="Ar7OocXq3OKdbZVe2O1A-1">
          <mxGeometry width="50" height="50" relative="1" as="geometry">
            <mxPoint x="180" y="570" as="sourcePoint" />
            <mxPoint x="198" y="570" as="targetPoint" />
          </mxGeometry>
        </mxCell>
        <mxCell id="1OoYCIVmeioUj_cGby9e-5" value="" style="shape=flexArrow;endArrow=classic;html=1;fontColor=#FFFFFF;exitX=0.107;exitY=1.008;exitDx=0;exitDy=0;exitPerimeter=0;" edge="1" parent="1">
          <mxGeometry width="50" height="50" relative="1" as="geometry">
            <mxPoint x="479.9999999999999" y="509.99999999999994" as="sourcePoint" />
            <mxPoint x="480.15" y="567.92" as="targetPoint" />
          </mxGeometry>
        </mxCell>
        <mxCell id="1OoYCIVmeioUj_cGby9e-6" value="" style="shape=flexArrow;endArrow=classic;html=1;fontColor=#FFFFFF;exitX=0.107;exitY=1.008;exitDx=0;exitDy=0;exitPerimeter=0;" edge="1" parent="1">
          <mxGeometry width="50" height="50" relative="1" as="geometry">
            <mxPoint x="498.9999999999999" y="192.07999999999993" as="sourcePoint" />
            <mxPoint x="499.15" y="250" as="targetPoint" />
          </mxGeometry>
        </mxCell>
        <mxCell id="1OoYCIVmeioUj_cGby9e-7" value="Text" style="text;html=1;strokeColor=none;fillColor=none;align=center;verticalAlign=middle;whiteSpace=wrap;rounded=0;fontColor=#FFFFFF;" vertex="1" parent="1">
          <mxGeometry x="390" y="360" width="40" height="20" as="geometry" />
        </mxCell>
        <mxCell id="1OoYCIVmeioUj_cGby9e-8" value="类加载子系统" style="text;html=1;strokeColor=none;fillColor=none;align=center;verticalAlign=middle;whiteSpace=wrap;rounded=0;fontColor=#000000;" vertex="1" parent="1">
          <mxGeometry x="430" y="170" width="100" height="20" as="geometry" />
        </mxCell>
        <mxCell id="1OoYCIVmeioUj_cGby9e-9" value="本地方法接口（库）" style="text;html=1;strokeColor=none;fillColor=none;align=center;verticalAlign=middle;whiteSpace=wrap;rounded=0;fontColor=#000000;" vertex="1" parent="1">
          <mxGeometry x="454" y="575" width="126" height="20" as="geometry" />
        </mxCell>
        <mxCell id="1OoYCIVmeioUj_cGby9e-10" value="执行引擎" style="text;html=1;strokeColor=none;fillColor=none;align=center;verticalAlign=middle;whiteSpace=wrap;rounded=0;fontColor=#000000;" vertex="1" parent="1">
          <mxGeometry x="150" y="575" width="126" height="20" as="geometry" />
        </mxCell>
      </root>
    </mxGraphModel>
  </diagram>
</mxfile>
